<mxfile host="app.diagrams.net" modified="2023-05-04T18:19:32.421Z" agent="Mozilla/5.0 (Macintosh; Intel Mac OS X 10_15_7) AppleWebKit/537.36 (KHTML, like Gecko) Chrome/112.0.0.0 Safari/537.36 Edg/112.0.1722.39" etag="LZcGSp3UkvJXITMePECx" version="21.2.2" type="device">
  <diagram id="5IgRsbpvTm4LBA3nCGGL" name="Page-1">
    <mxGraphModel dx="3028" dy="5564" grid="1" gridSize="10" guides="1" tooltips="1" connect="1" arrows="1" fold="1" page="1" pageScale="1" pageWidth="827" pageHeight="1169" math="0" shadow="0">
      <root>
        <mxCell id="0" />
        <mxCell id="1" parent="0" />
        <mxCell id="vhmbv-RrimLqrtO0uC5v-1" value="profile Security" style="shape=umlFrame;whiteSpace=wrap;html=1;width=100;height=30;" parent="1" vertex="1">
          <mxGeometry x="-1630" y="-4160" width="1330" height="1440" as="geometry" />
        </mxCell>
        <mxCell id="gfH33e8ERVnTQL8CG1b4-8" value="profile Core" style="shape=umlFrame;whiteSpace=wrap;html=1;width=100;height=30;" parent="1" vertex="1">
          <mxGeometry x="-1630" y="-4640" width="1330" height="470" as="geometry" />
        </mxCell>
        <mxCell id="gfH33e8ERVnTQL8CG1b4-1" value="VexVulnAssessmentRelationship" style="swimlane;fontStyle=1;childLayout=stackLayout;horizontal=1;startSize=26;fillColor=#d5e8d4;horizontalStack=0;resizeParent=1;resizeParentMax=0;resizeLast=0;collapsible=1;marginBottom=0;strokeColor=#82b366;" parent="1" vertex="1">
          <mxGeometry x="-1470" y="-3310" width="380" height="78" as="geometry" />
        </mxCell>
        <mxCell id="gfH33e8ERVnTQL8CG1b4-10" value="+ vexPublished: DateTime[0...1]&#xa;&#xa;" style="text;strokeColor=none;fillColor=none;align=left;verticalAlign=top;spacingLeft=4;spacingRight=4;overflow=hidden;rotatable=0;points=[[0,0.5],[1,0.5]];portConstraint=eastwest;" parent="gfH33e8ERVnTQL8CG1b4-1" vertex="1">
          <mxGeometry y="26" width="380" height="26" as="geometry" />
        </mxCell>
        <mxCell id="PAFHYs4fHEggMUIT7Akd-7" value="+ vexLastUpdated: DateTime[0...1]&#xa;&#xa;" style="text;strokeColor=none;fillColor=none;align=left;verticalAlign=top;spacingLeft=4;spacingRight=4;overflow=hidden;rotatable=0;points=[[0,0.5],[1,0.5]];portConstraint=eastwest;" parent="gfH33e8ERVnTQL8CG1b4-1" vertex="1">
          <mxGeometry y="52" width="380" height="26" as="geometry" />
        </mxCell>
        <mxCell id="gfH33e8ERVnTQL8CG1b4-11" value="Vulnerability" style="swimlane;fontStyle=1;childLayout=stackLayout;horizontal=1;startSize=26;fillColor=#d5e8d4;horizontalStack=0;resizeParent=1;resizeParentMax=0;resizeLast=0;collapsible=1;marginBottom=0;strokeColor=#82b366;" parent="1" vertex="1">
          <mxGeometry x="-1369" y="-4148" width="281" height="104" as="geometry" />
        </mxCell>
        <mxCell id="gfH33e8ERVnTQL8CG1b4-13" value="+ published: DateTime [0..1]" style="text;strokeColor=none;fillColor=none;align=left;verticalAlign=top;spacingLeft=4;spacingRight=4;overflow=hidden;rotatable=0;points=[[0,0.5],[1,0.5]];portConstraint=eastwest;" parent="gfH33e8ERVnTQL8CG1b4-11" vertex="1">
          <mxGeometry y="26" width="281" height="26" as="geometry" />
        </mxCell>
        <mxCell id="gfH33e8ERVnTQL8CG1b4-14" value="+ modified: DateTime[0..1]&#xa;" style="text;strokeColor=none;fillColor=none;align=left;verticalAlign=top;spacingLeft=4;spacingRight=4;overflow=hidden;rotatable=0;points=[[0,0.5],[1,0.5]];portConstraint=eastwest;" parent="gfH33e8ERVnTQL8CG1b4-11" vertex="1">
          <mxGeometry y="52" width="281" height="26" as="geometry" />
        </mxCell>
        <mxCell id="gfH33e8ERVnTQL8CG1b4-75" value="+ withdrawn: DateTime[0..1]&#xa;" style="text;strokeColor=none;fillColor=none;align=left;verticalAlign=top;spacingLeft=4;spacingRight=4;overflow=hidden;rotatable=0;points=[[0,0.5],[1,0.5]];portConstraint=eastwest;" parent="gfH33e8ERVnTQL8CG1b4-11" vertex="1">
          <mxGeometry y="78" width="281" height="26" as="geometry" />
        </mxCell>
        <mxCell id="gfH33e8ERVnTQL8CG1b4-21" value="&lt;p style=&quot;margin: 0px ; margin-top: 4px ; text-align: center ; text-decoration: underline&quot;&gt;&lt;b&gt;ExternalReferenceType&lt;/b&gt;&lt;/p&gt;&lt;hr&gt;&lt;p style=&quot;margin: 0px ; margin-left: 8px&quot;&gt;&lt;span style=&quot;background-color: initial; font-family: &amp;quot;Courier New&amp;quot;;&quot;&gt;securityAdvisory&lt;/span&gt;&lt;br&gt;&lt;/p&gt;&lt;p style=&quot;margin: 0px ; margin-left: 8px&quot;&gt;&lt;font face=&quot;Courier New&quot;&gt;securityFix&lt;/font&gt;&lt;/p&gt;&lt;p style=&quot;margin: 0px ; margin-left: 8px&quot;&gt;&lt;font face=&quot;Courier New&quot;&gt;securityOther&lt;/font&gt;&lt;/p&gt;&lt;p style=&quot;margin: 0px ; margin-left: 8px&quot;&gt;&lt;font face=&quot;Courier New&quot;&gt;...&lt;/font&gt;&lt;/p&gt;&lt;p style=&quot;margin: 0px ; margin-left: 8px&quot;&gt;&lt;br&gt;&lt;/p&gt;" style="verticalAlign=top;align=left;overflow=fill;fontSize=12;fontFamily=Helvetica;html=1;" parent="1" vertex="1">
          <mxGeometry x="-910" y="-4630" width="180" height="130" as="geometry" />
        </mxCell>
        <mxCell id="gfH33e8ERVnTQL8CG1b4-22" value="ExternalReference" style="swimlane;fontStyle=5;childLayout=stackLayout;horizontal=1;startSize=26;fillColor=none;horizontalStack=0;resizeParent=1;resizeParentMax=0;resizeLast=0;collapsible=1;marginBottom=0;" parent="1" vertex="1">
          <mxGeometry x="-1270" y="-4630" width="340" height="130" as="geometry" />
        </mxCell>
        <mxCell id="gfH33e8ERVnTQL8CG1b4-23" value="+ externalReferenceType: ExternalReferenceType" style="text;strokeColor=none;fillColor=none;align=left;verticalAlign=top;spacingLeft=4;spacingRight=4;overflow=hidden;rotatable=0;points=[[0,0.5],[1,0.5]];portConstraint=eastwest;" parent="gfH33e8ERVnTQL8CG1b4-22" vertex="1">
          <mxGeometry y="26" width="340" height="26" as="geometry" />
        </mxCell>
        <mxCell id="gfH33e8ERVnTQL8CG1b4-24" value="+ locator: IRI" style="text;strokeColor=none;fillColor=none;align=left;verticalAlign=top;spacingLeft=4;spacingRight=4;overflow=hidden;rotatable=0;points=[[0,0.5],[1,0.5]];portConstraint=eastwest;" parent="gfH33e8ERVnTQL8CG1b4-22" vertex="1">
          <mxGeometry y="52" width="340" height="26" as="geometry" />
        </mxCell>
        <mxCell id="gfH33e8ERVnTQL8CG1b4-25" value="+ contentType: MediaType [0..1]" style="text;strokeColor=none;fillColor=none;align=left;verticalAlign=top;spacingLeft=4;spacingRight=4;overflow=hidden;rotatable=0;points=[[0,0.5],[1,0.5]];portConstraint=eastwest;" parent="gfH33e8ERVnTQL8CG1b4-22" vertex="1">
          <mxGeometry y="78" width="340" height="26" as="geometry" />
        </mxCell>
        <mxCell id="gfH33e8ERVnTQL8CG1b4-26" value="+ comment: String[0..1]" style="text;strokeColor=none;fillColor=none;align=left;verticalAlign=top;spacingLeft=4;spacingRight=4;overflow=hidden;rotatable=0;points=[[0,0.5],[1,0.5]];portConstraint=eastwest;" parent="gfH33e8ERVnTQL8CG1b4-22" vertex="1">
          <mxGeometry y="104" width="340" height="26" as="geometry" />
        </mxCell>
        <object label="Element" description="static representation of a part of the universe of discourse that may be identified and characterised by its behaviour and attribute." description_source="ISO 15531-1:2004" id="gfH33e8ERVnTQL8CG1b4-43">
          <mxCell style="swimlane;fontStyle=3;childLayout=stackLayout;horizontal=1;startSize=26;fillColor=#6a00ff;horizontalStack=0;resizeParent=1;resizeParentMax=0;resizeLast=0;collapsible=1;marginBottom=0;strokeColor=#3700CC;fontColor=#ffffff;" parent="1" vertex="1">
            <mxGeometry x="-1548" y="-4570" width="260" height="260" as="geometry" />
          </mxCell>
        </object>
        <mxCell id="gfH33e8ERVnTQL8CG1b4-44" value="+ SPDXID: IRI[1]" style="text;strokeColor=none;fillColor=none;align=left;verticalAlign=top;spacingLeft=4;spacingRight=4;overflow=hidden;rotatable=0;points=[[0,0.5],[1,0.5]];portConstraint=eastwest;" parent="gfH33e8ERVnTQL8CG1b4-43" vertex="1">
          <mxGeometry y="26" width="260" height="26" as="geometry" />
        </mxCell>
        <mxCell id="gfH33e8ERVnTQL8CG1b4-45" value="+ name: String[0..1]" style="text;strokeColor=none;fillColor=none;align=left;verticalAlign=top;spacingLeft=4;spacingRight=4;overflow=hidden;rotatable=0;points=[[0,0.5],[1,0.5]];portConstraint=eastwest;" parent="gfH33e8ERVnTQL8CG1b4-43" vertex="1">
          <mxGeometry y="52" width="260" height="26" as="geometry" />
        </mxCell>
        <mxCell id="gfH33e8ERVnTQL8CG1b4-46" value="+ summary: String[0..1]" style="text;strokeColor=none;fillColor=none;align=left;verticalAlign=top;spacingLeft=4;spacingRight=4;overflow=hidden;rotatable=0;points=[[0,0.5],[1,0.5]];portConstraint=eastwest;" parent="gfH33e8ERVnTQL8CG1b4-43" vertex="1">
          <mxGeometry y="78" width="260" height="26" as="geometry" />
        </mxCell>
        <mxCell id="gfH33e8ERVnTQL8CG1b4-47" value="+ description: String[0..1]" style="text;strokeColor=none;fillColor=none;align=left;verticalAlign=top;spacingLeft=4;spacingRight=4;overflow=hidden;rotatable=0;points=[[0,0.5],[1,0.5]];portConstraint=eastwest;" parent="gfH33e8ERVnTQL8CG1b4-43" vertex="1">
          <mxGeometry y="104" width="260" height="26" as="geometry" />
        </mxCell>
        <mxCell id="gfH33e8ERVnTQL8CG1b4-48" value="+ comment: String[0..1]" style="text;strokeColor=none;fillColor=none;align=left;verticalAlign=top;spacingLeft=4;spacingRight=4;overflow=hidden;rotatable=0;points=[[0,0.5],[1,0.5]];portConstraint=eastwest;" parent="gfH33e8ERVnTQL8CG1b4-43" vertex="1">
          <mxGeometry y="130" width="260" height="26" as="geometry" />
        </mxCell>
        <mxCell id="gfH33e8ERVnTQL8CG1b4-49" value="+ creationInfo: CreationInformation[1]" style="text;strokeColor=none;fillColor=none;align=left;verticalAlign=top;spacingLeft=4;spacingRight=4;overflow=hidden;rotatable=0;points=[[0,0.5],[1,0.5]];portConstraint=eastwest;" parent="gfH33e8ERVnTQL8CG1b4-43" vertex="1">
          <mxGeometry y="156" width="260" height="26" as="geometry" />
        </mxCell>
        <mxCell id="gfH33e8ERVnTQL8CG1b4-50" value="+ verifiedUsing: IntegrityMethod[0..*]" style="text;strokeColor=none;fillColor=none;align=left;verticalAlign=top;spacingLeft=4;spacingRight=4;overflow=hidden;rotatable=0;points=[[0,0.5],[1,0.5]];portConstraint=eastwest;" parent="gfH33e8ERVnTQL8CG1b4-43" vertex="1">
          <mxGeometry y="182" width="260" height="26" as="geometry" />
        </mxCell>
        <mxCell id="gfH33e8ERVnTQL8CG1b4-52" value="+ externalIdentifier: ExternalIdentifier[0..*]" style="text;strokeColor=none;fillColor=none;align=left;verticalAlign=top;spacingLeft=4;spacingRight=4;overflow=hidden;rotatable=0;points=[[0,0.5],[1,0.5]];portConstraint=eastwest;" parent="gfH33e8ERVnTQL8CG1b4-43" vertex="1">
          <mxGeometry y="208" width="260" height="26" as="geometry" />
        </mxCell>
        <mxCell id="gfH33e8ERVnTQL8CG1b4-53" value="+ extension: Map&lt;IRI&lt;ExtensionClass&gt;, Extension&gt;[0..1]" style="text;strokeColor=none;fillColor=none;align=left;verticalAlign=top;spacingLeft=4;spacingRight=4;overflow=hidden;rotatable=0;points=[[0,0.5],[1,0.5]];portConstraint=eastwest;" parent="gfH33e8ERVnTQL8CG1b4-43" vertex="1">
          <mxGeometry y="234" width="260" height="26" as="geometry" />
        </mxCell>
        <mxCell id="gfH33e8ERVnTQL8CG1b4-57" value="&lt;p style=&quot;margin: 4px 0px 0px; text-align: center;&quot;&gt;&lt;span style=&quot;background-color: initial;&quot;&gt;&lt;b&gt;&lt;u&gt;VexJustificationType&lt;/u&gt;&lt;/b&gt;&lt;/span&gt;&lt;/p&gt;&lt;hr&gt;&lt;p style=&quot;margin: 0px ; margin-left: 8px&quot;&gt;&lt;span style=&quot;font-family: &amp;quot;Courier New&amp;quot;; background-color: initial;&quot;&gt;componentNotPresent&lt;/span&gt;&lt;br&gt;&lt;/p&gt;&lt;p style=&quot;margin: 0px ; margin-left: 8px&quot;&gt;&lt;font face=&quot;Courier New&quot;&gt;vulnerableCodeNotPresent&lt;/font&gt;&lt;/p&gt;&lt;p style=&quot;margin: 0px ; margin-left: 8px&quot;&gt;&lt;font face=&quot;Courier New&quot;&gt;vulnerableCodeCannotBeControlledByAdversary&lt;/font&gt;&lt;/p&gt;&lt;p style=&quot;margin: 0px ; margin-left: 8px&quot;&gt;&lt;font face=&quot;Courier New&quot;&gt;vulnerableCodeNotInExecutePath&lt;/font&gt;&lt;/p&gt;&lt;p style=&quot;margin: 0px ; margin-left: 8px&quot;&gt;&lt;span style=&quot;font-family: &amp;quot;Courier New&amp;quot;; background-color: initial;&quot;&gt;inlineMitigationsAlreadyExist&lt;/span&gt;&lt;/p&gt;" style="verticalAlign=top;align=left;overflow=fill;fontSize=12;fontFamily=Helvetica;html=1;" parent="1" vertex="1">
          <mxGeometry x="-1000" y="-3110" width="319" height="110" as="geometry" />
        </mxCell>
        <mxCell id="gfH33e8ERVnTQL8CG1b4-63" value="" style="endArrow=block;endSize=6;endFill=0;html=1;entryX=0.462;entryY=0.962;entryDx=0;entryDy=0;entryPerimeter=0;exitX=0.5;exitY=0;exitDx=0;exitDy=0;" parent="1" source="rZuNcApO604I1lBTYKyU-2" target="gfH33e8ERVnTQL8CG1b4-53" edge="1">
          <mxGeometry width="160" relative="1" as="geometry">
            <mxPoint x="-1430" y="-4290" as="sourcePoint" />
            <mxPoint x="-1412.08" y="-4300.988" as="targetPoint" />
          </mxGeometry>
        </mxCell>
        <mxCell id="gfH33e8ERVnTQL8CG1b4-92" value="&lt;p style=&quot;margin: 4px 0px 0px; text-align: center;&quot;&gt;&lt;span style=&quot;background-color: initial;&quot;&gt;&lt;b&gt;&lt;u&gt;CvssV3SeverityType&lt;/u&gt;&lt;/b&gt;&lt;/span&gt;&lt;/p&gt;&lt;hr&gt;&lt;p style=&quot;margin: 0px ; margin-left: 8px&quot;&gt;&lt;span style=&quot;background-color: initial; font-family: &amp;quot;Courier New&amp;quot;;&quot;&gt;critical&lt;/span&gt;&lt;/p&gt;&lt;p style=&quot;margin: 0px ; margin-left: 8px&quot;&gt;&lt;font face=&quot;Courier New&quot;&gt;&lt;span style=&quot;font-size: 12px;&quot;&gt;high&lt;/span&gt;&lt;/font&gt;&lt;/p&gt;&lt;p style=&quot;margin: 0px ; margin-left: 8px&quot;&gt;&lt;font face=&quot;Courier New&quot;&gt;&lt;span style=&quot;font-size: 12px;&quot;&gt;medium&lt;/span&gt;&lt;/font&gt;&lt;/p&gt;&lt;p style=&quot;margin: 0px ; margin-left: 8px&quot;&gt;&lt;font face=&quot;Courier New&quot;&gt;&lt;span style=&quot;font-size: 12px;&quot;&gt;low&lt;/span&gt;&lt;/font&gt;&lt;/p&gt;&lt;p style=&quot;margin: 0px ; margin-left: 8px&quot;&gt;&lt;font face=&quot;Courier New&quot;&gt;&lt;span style=&quot;font-size: 12px;&quot;&gt;none&lt;/span&gt;&lt;/font&gt;&lt;/p&gt;&lt;p style=&quot;margin: 0px ; margin-left: 8px&quot;&gt;&lt;font face=&quot;Courier New&quot;&gt;noAssertion&lt;/font&gt;&lt;/p&gt;" style="verticalAlign=top;align=left;overflow=fill;fontSize=12;fontFamily=Helvetica;html=1;" parent="1" vertex="1">
          <mxGeometry x="-1040" y="-3811" width="319" height="130" as="geometry" />
        </mxCell>
        <mxCell id="vhmbv-RrimLqrtO0uC5v-4" value="VulnAssessmentRelationship" style="swimlane;fontStyle=1;childLayout=stackLayout;horizontal=1;startSize=26;fillColor=#d5e8d4;horizontalStack=0;resizeParent=1;resizeParentMax=0;resizeLast=0;collapsible=1;marginBottom=0;strokeColor=#82b366;" parent="1" vertex="1">
          <mxGeometry x="-1570" y="-4020" width="360" height="52" as="geometry" />
        </mxCell>
        <mxCell id="ycgP8Sd5Gd4hE947tm71-1" value="+ assessedElement: Software Artifact or Relationship[0..1]" style="text;strokeColor=none;fillColor=none;align=left;verticalAlign=top;spacingLeft=4;spacingRight=4;overflow=hidden;rotatable=0;points=[[0,0.5],[1,0.5]];portConstraint=eastwest;" parent="vhmbv-RrimLqrtO0uC5v-4" vertex="1">
          <mxGeometry y="26" width="360" height="26" as="geometry" />
        </mxCell>
        <mxCell id="vhmbv-RrimLqrtO0uC5v-9" value="CvssV2VulnAssessmentRelationship" style="swimlane;fontStyle=1;childLayout=stackLayout;horizontal=1;startSize=26;fillColor=#d5e8d4;horizontalStack=0;resizeParent=1;resizeParentMax=0;resizeLast=0;collapsible=1;marginBottom=0;strokeColor=#82b366;" parent="1" vertex="1">
          <mxGeometry x="-1469" y="-3950" width="378" height="130" as="geometry" />
        </mxCell>
        <mxCell id="vhmbv-RrimLqrtO0uC5v-6" value="+ score: String[0..1]" style="text;strokeColor=none;fillColor=none;align=left;verticalAlign=top;spacingLeft=4;spacingRight=4;overflow=hidden;rotatable=0;points=[[0,0.5],[1,0.5]];portConstraint=eastwest;" parent="vhmbv-RrimLqrtO0uC5v-9" vertex="1">
          <mxGeometry y="26" width="378" height="26" as="geometry" />
        </mxCell>
        <mxCell id="vhmbv-RrimLqrtO0uC5v-10" value="+ severity: CvssV2SeverityType[1]" style="text;strokeColor=none;fillColor=none;align=left;verticalAlign=top;spacingLeft=4;spacingRight=4;overflow=hidden;rotatable=0;points=[[0,0.5],[1,0.5]];portConstraint=eastwest;" parent="vhmbv-RrimLqrtO0uC5v-9" vertex="1">
          <mxGeometry y="52" width="378" height="26" as="geometry" />
        </mxCell>
        <mxCell id="vhmbv-RrimLqrtO0uC5v-13" value="+ vector: String[0..1]" style="text;strokeColor=none;fillColor=none;align=left;verticalAlign=top;spacingLeft=4;spacingRight=4;overflow=hidden;rotatable=0;points=[[0,0.5],[1,0.5]];portConstraint=eastwest;" parent="vhmbv-RrimLqrtO0uC5v-9" vertex="1">
          <mxGeometry y="78" width="378" height="26" as="geometry" />
        </mxCell>
        <mxCell id="dll3_H41sZPCGXfSmoCE-24" value="+ relationshipType: &quot;hasCvssV2AssessmentFor&quot;" style="text;strokeColor=none;fillColor=none;align=left;verticalAlign=top;spacingLeft=4;spacingRight=4;overflow=hidden;rotatable=0;points=[[0,0.5],[1,0.5]];portConstraint=eastwest;" vertex="1" parent="vhmbv-RrimLqrtO0uC5v-9">
          <mxGeometry y="104" width="378" height="26" as="geometry" />
        </mxCell>
        <mxCell id="vhmbv-RrimLqrtO0uC5v-16" value="CvssV3VulnAssessmentRelationship" style="swimlane;fontStyle=1;childLayout=stackLayout;horizontal=1;startSize=26;fillColor=#d5e8d4;horizontalStack=0;resizeParent=1;resizeParentMax=0;resizeLast=0;collapsible=1;marginBottom=0;strokeColor=#82b366;" parent="1" vertex="1">
          <mxGeometry x="-1470" y="-3811" width="378" height="130" as="geometry" />
        </mxCell>
        <mxCell id="vhmbv-RrimLqrtO0uC5v-35" value="+ score: String[0..1]" style="text;strokeColor=none;fillColor=none;align=left;verticalAlign=top;spacingLeft=4;spacingRight=4;overflow=hidden;rotatable=0;points=[[0,0.5],[1,0.5]];portConstraint=eastwest;" parent="vhmbv-RrimLqrtO0uC5v-16" vertex="1">
          <mxGeometry y="26" width="378" height="26" as="geometry" />
        </mxCell>
        <mxCell id="vhmbv-RrimLqrtO0uC5v-17" value="+ severity: CvssV3SeverityType[1]" style="text;strokeColor=none;fillColor=none;align=left;verticalAlign=top;spacingLeft=4;spacingRight=4;overflow=hidden;rotatable=0;points=[[0,0.5],[1,0.5]];portConstraint=eastwest;" parent="vhmbv-RrimLqrtO0uC5v-16" vertex="1">
          <mxGeometry y="52" width="378" height="26" as="geometry" />
        </mxCell>
        <mxCell id="vhmbv-RrimLqrtO0uC5v-18" value="+ vector: String[0..1]" style="text;strokeColor=none;fillColor=none;align=left;verticalAlign=top;spacingLeft=4;spacingRight=4;overflow=hidden;rotatable=0;points=[[0,0.5],[1,0.5]];portConstraint=eastwest;" parent="vhmbv-RrimLqrtO0uC5v-16" vertex="1">
          <mxGeometry y="78" width="378" height="26" as="geometry" />
        </mxCell>
        <mxCell id="dll3_H41sZPCGXfSmoCE-23" value="+ relationshipType: &quot;hasCvssV3AssessmentFor&quot;" style="text;strokeColor=none;fillColor=none;align=left;verticalAlign=top;spacingLeft=4;spacingRight=4;overflow=hidden;rotatable=0;points=[[0,0.5],[1,0.5]];portConstraint=eastwest;" vertex="1" parent="vhmbv-RrimLqrtO0uC5v-16">
          <mxGeometry y="104" width="378" height="26" as="geometry" />
        </mxCell>
        <mxCell id="vhmbv-RrimLqrtO0uC5v-20" value="EpssVulnAssessmentRelationship" style="swimlane;fontStyle=1;childLayout=stackLayout;horizontal=1;startSize=26;fillColor=#d5e8d4;horizontalStack=0;resizeParent=1;resizeParentMax=0;resizeLast=0;collapsible=1;marginBottom=0;strokeColor=#82b366;" parent="1" vertex="1">
          <mxGeometry x="-1470" y="-3673" width="378" height="104" as="geometry" />
        </mxCell>
        <mxCell id="vhmbv-RrimLqrtO0uC5v-22" value="+ probability: Integer[1]" style="text;strokeColor=none;fillColor=none;align=left;verticalAlign=top;spacingLeft=4;spacingRight=4;overflow=hidden;rotatable=0;points=[[0,0.5],[1,0.5]];portConstraint=eastwest;" parent="vhmbv-RrimLqrtO0uC5v-20" vertex="1">
          <mxGeometry y="26" width="378" height="26" as="geometry" />
        </mxCell>
        <mxCell id="vhmbv-RrimLqrtO0uC5v-24" value="+ severity: String[0..1]" style="text;strokeColor=none;fillColor=none;align=left;verticalAlign=top;spacingLeft=4;spacingRight=4;overflow=hidden;rotatable=0;points=[[0,0.5],[1,0.5]];portConstraint=eastwest;" parent="vhmbv-RrimLqrtO0uC5v-20" vertex="1">
          <mxGeometry y="52" width="378" height="26" as="geometry" />
        </mxCell>
        <mxCell id="dll3_H41sZPCGXfSmoCE-20" value="+ relationshipType: &quot;hasSsvcCatalogAssessmentFor&quot;" style="text;strokeColor=none;fillColor=none;align=left;verticalAlign=top;spacingLeft=4;spacingRight=4;overflow=hidden;rotatable=0;points=[[0,0.5],[1,0.5]];portConstraint=eastwest;" vertex="1" parent="vhmbv-RrimLqrtO0uC5v-20">
          <mxGeometry y="78" width="378" height="26" as="geometry" />
        </mxCell>
        <mxCell id="vhmbv-RrimLqrtO0uC5v-25" value="SsvcVulnAssessmentRelationship" style="swimlane;fontStyle=1;childLayout=stackLayout;horizontal=1;startSize=26;fillColor=#d5e8d4;horizontalStack=0;resizeParent=1;resizeParentMax=0;resizeLast=0;collapsible=1;marginBottom=0;strokeColor=#82b366;" parent="1" vertex="1">
          <mxGeometry x="-1470" y="-3556" width="378" height="78" as="geometry" />
        </mxCell>
        <mxCell id="vhmbv-RrimLqrtO0uC5v-27" value="+ decision: SsvcDecisionType[1]" style="text;strokeColor=none;fillColor=none;align=left;verticalAlign=top;spacingLeft=4;spacingRight=4;overflow=hidden;rotatable=0;points=[[0,0.5],[1,0.5]];portConstraint=eastwest;" parent="vhmbv-RrimLqrtO0uC5v-25" vertex="1">
          <mxGeometry y="26" width="378" height="26" as="geometry" />
        </mxCell>
        <mxCell id="dll3_H41sZPCGXfSmoCE-19" value="+ relationshipType: &quot;hasSsvcCatalogAssessmentFor&quot;" style="text;strokeColor=none;fillColor=none;align=left;verticalAlign=top;spacingLeft=4;spacingRight=4;overflow=hidden;rotatable=0;points=[[0,0.5],[1,0.5]];portConstraint=eastwest;" vertex="1" parent="vhmbv-RrimLqrtO0uC5v-25">
          <mxGeometry y="52" width="378" height="26" as="geometry" />
        </mxCell>
        <mxCell id="vhmbv-RrimLqrtO0uC5v-28" value="&lt;p style=&quot;margin: 4px 0px 0px; text-align: center;&quot;&gt;&lt;span style=&quot;background-color: initial;&quot;&gt;&lt;b&gt;&lt;u&gt;SsvcDecisionType&lt;/u&gt;&lt;/b&gt;&lt;/span&gt;&lt;/p&gt;&lt;hr&gt;&lt;p style=&quot;margin: 0px ; margin-left: 8px&quot;&gt;&lt;font face=&quot;Courier New&quot;&gt;act&lt;/font&gt;&lt;/p&gt;&lt;p style=&quot;margin: 0px ; margin-left: 8px&quot;&gt;&lt;font face=&quot;Courier New&quot;&gt;attend&lt;/font&gt;&lt;/p&gt;&lt;p style=&quot;margin: 0px ; margin-left: 8px&quot;&gt;&lt;font face=&quot;Courier New&quot;&gt;track&lt;/font&gt;&lt;/p&gt;&lt;p style=&quot;margin: 0px ; margin-left: 8px&quot;&gt;&lt;font face=&quot;Courier New&quot;&gt;track*&lt;/font&gt;&lt;/p&gt;" style="verticalAlign=top;align=left;overflow=fill;fontSize=12;fontFamily=Helvetica;html=1;" parent="1" vertex="1">
          <mxGeometry x="-1040" y="-3556" width="319" height="96" as="geometry" />
        </mxCell>
        <mxCell id="vhmbv-RrimLqrtO0uC5v-48" value="&lt;meta charset=&quot;utf-8&quot;&gt;&lt;a href=&quot;https://www.cisa.gov/known-exploited-vulnerabilities-catalog&quot;&gt;Known Exploited Vulnerabilities Catalog | CISA&lt;/a&gt;" style="text;whiteSpace=wrap;html=1;" parent="1" vertex="1">
          <mxGeometry x="-750" y="-3400" width="280" height="40" as="geometry" />
        </mxCell>
        <mxCell id="vhmbv-RrimLqrtO0uC5v-50" value="ExploitCatalogVulnAssessmentRelationship" style="swimlane;fontStyle=1;childLayout=stackLayout;horizontal=1;startSize=26;fillColor=#d5e8d4;horizontalStack=0;resizeParent=1;resizeParentMax=0;resizeLast=0;collapsible=1;marginBottom=0;strokeColor=#82b366;" parent="1" vertex="1">
          <mxGeometry x="-1470" y="-3458" width="378" height="130" as="geometry" />
        </mxCell>
        <mxCell id="dll3_H41sZPCGXfSmoCE-16" value="+ catalogType: ExploitCatalogType[1]" style="text;strokeColor=none;fillColor=none;align=left;verticalAlign=top;spacingLeft=4;spacingRight=4;overflow=hidden;rotatable=0;points=[[0,0.5],[1,0.5]];portConstraint=eastwest;" vertex="1" parent="vhmbv-RrimLqrtO0uC5v-50">
          <mxGeometry y="26" width="378" height="26" as="geometry" />
        </mxCell>
        <mxCell id="vhmbv-RrimLqrtO0uC5v-57" value="+ isListed: Boolean[1]" style="text;strokeColor=none;fillColor=none;align=left;verticalAlign=top;spacingLeft=4;spacingRight=4;overflow=hidden;rotatable=0;points=[[0,0.5],[1,0.5]];portConstraint=eastwest;" parent="vhmbv-RrimLqrtO0uC5v-50" vertex="1">
          <mxGeometry y="52" width="378" height="26" as="geometry" />
        </mxCell>
        <mxCell id="vhmbv-RrimLqrtO0uC5v-52" value="+ locator: URL[0..1]" style="text;strokeColor=none;fillColor=none;align=left;verticalAlign=top;spacingLeft=4;spacingRight=4;overflow=hidden;rotatable=0;points=[[0,0.5],[1,0.5]];portConstraint=eastwest;" parent="vhmbv-RrimLqrtO0uC5v-50" vertex="1">
          <mxGeometry y="78" width="378" height="26" as="geometry" />
        </mxCell>
        <mxCell id="dll3_H41sZPCGXfSmoCE-18" value="+ relationshipType: &quot;hasExploitCatalogAssessmentFor&quot;" style="text;strokeColor=none;fillColor=none;align=left;verticalAlign=top;spacingLeft=4;spacingRight=4;overflow=hidden;rotatable=0;points=[[0,0.5],[1,0.5]];portConstraint=eastwest;" vertex="1" parent="vhmbv-RrimLqrtO0uC5v-50">
          <mxGeometry y="104" width="378" height="26" as="geometry" />
        </mxCell>
        <mxCell id="vhmbv-RrimLqrtO0uC5v-64" value="VexAffectedAssessmentRelationship" style="swimlane;fontStyle=1;childLayout=stackLayout;horizontal=1;startSize=26;fillColor=#d5e8d4;horizontalStack=0;resizeParent=1;resizeParentMax=0;resizeLast=0;collapsible=1;marginBottom=0;strokeColor=#82b366;" parent="1" vertex="1">
          <mxGeometry x="-1420" y="-3206" width="380" height="72" as="geometry" />
        </mxCell>
        <mxCell id="vhmbv-RrimLqrtO0uC5v-63" value="+ actionStatement: String[1]" style="text;strokeColor=none;fillColor=none;align=left;verticalAlign=top;spacingLeft=4;spacingRight=4;overflow=hidden;rotatable=0;points=[[0,0.5],[1,0.5]];portConstraint=eastwest;" parent="vhmbv-RrimLqrtO0uC5v-64" vertex="1">
          <mxGeometry y="26" width="380" height="20" as="geometry" />
        </mxCell>
        <mxCell id="dll3_H41sZPCGXfSmoCE-5" value="+ relationshipType: &quot;affects&quot;" style="text;strokeColor=none;fillColor=none;align=left;verticalAlign=top;spacingLeft=4;spacingRight=4;overflow=hidden;rotatable=0;points=[[0,0.5],[1,0.5]];portConstraint=eastwest;" vertex="1" parent="vhmbv-RrimLqrtO0uC5v-64">
          <mxGeometry y="46" width="380" height="26" as="geometry" />
        </mxCell>
        <mxCell id="vhmbv-RrimLqrtO0uC5v-70" value="VexNotAffectedVulnAssessmentRelationship" style="swimlane;fontStyle=1;childLayout=stackLayout;horizontal=1;startSize=26;fillColor=#d5e8d4;horizontalStack=0;resizeParent=1;resizeParentMax=0;resizeLast=0;collapsible=1;marginBottom=0;strokeColor=#82b366;" parent="1" vertex="1">
          <mxGeometry x="-1420" y="-3110" width="380" height="104" as="geometry" />
        </mxCell>
        <mxCell id="vhmbv-RrimLqrtO0uC5v-71" value="+ impact: String[0..1]" style="text;strokeColor=none;fillColor=none;align=left;verticalAlign=top;spacingLeft=4;spacingRight=4;overflow=hidden;rotatable=0;points=[[0,0.5],[1,0.5]];portConstraint=eastwest;" parent="vhmbv-RrimLqrtO0uC5v-70" vertex="1">
          <mxGeometry y="26" width="380" height="26" as="geometry" />
        </mxCell>
        <mxCell id="vhmbv-RrimLqrtO0uC5v-72" value="+ justification: VexJustificationType[1]" style="text;strokeColor=none;fillColor=none;align=left;verticalAlign=top;spacingLeft=4;spacingRight=4;overflow=hidden;rotatable=0;points=[[0,0.5],[1,0.5]];portConstraint=eastwest;" parent="vhmbv-RrimLqrtO0uC5v-70" vertex="1">
          <mxGeometry y="52" width="380" height="26" as="geometry" />
        </mxCell>
        <mxCell id="dll3_H41sZPCGXfSmoCE-6" value="+ relationshipType: &quot;doesNotAffect&quot;" style="text;strokeColor=none;fillColor=none;align=left;verticalAlign=top;spacingLeft=4;spacingRight=4;overflow=hidden;rotatable=0;points=[[0,0.5],[1,0.5]];portConstraint=eastwest;" vertex="1" parent="vhmbv-RrimLqrtO0uC5v-70">
          <mxGeometry y="78" width="380" height="26" as="geometry" />
        </mxCell>
        <mxCell id="ycgP8Sd5Gd4hE947tm71-8" value="" style="endArrow=none;html=1;rounded=0;" parent="1" edge="1">
          <mxGeometry x="-0.6129" y="116" width="50" height="50" relative="1" as="geometry">
            <mxPoint x="-1470" y="-3540" as="sourcePoint" />
            <mxPoint x="-1500" y="-3660" as="targetPoint" />
            <Array as="points">
              <mxPoint x="-1500" y="-3540" />
            </Array>
            <mxPoint x="106" y="116" as="offset" />
          </mxGeometry>
        </mxCell>
        <mxCell id="Yeybq29zLoQR2ApoFsXh-2" value="" style="endArrow=none;html=1;rounded=0;exitX=0;exitY=0.385;exitDx=0;exitDy=0;exitPerimeter=0;" parent="1" edge="1">
          <mxGeometry x="-0.6129" y="116" width="50" height="50" relative="1" as="geometry">
            <mxPoint x="-1470" y="-3658.98" as="sourcePoint" />
            <mxPoint x="-1500" y="-3799" as="targetPoint" />
            <Array as="points">
              <mxPoint x="-1500" y="-3659" />
            </Array>
            <mxPoint x="106" y="116" as="offset" />
          </mxGeometry>
        </mxCell>
        <mxCell id="Yeybq29zLoQR2ApoFsXh-3" value="" style="endArrow=none;html=1;rounded=0;exitX=0;exitY=0.385;exitDx=0;exitDy=0;exitPerimeter=0;" parent="1" edge="1">
          <mxGeometry x="-0.6129" y="116" width="50" height="50" relative="1" as="geometry">
            <mxPoint x="-1470" y="-3791.99" as="sourcePoint" />
            <mxPoint x="-1500" y="-3940" as="targetPoint" />
            <Array as="points">
              <mxPoint x="-1500" y="-3792.01" />
            </Array>
            <mxPoint x="106" y="116" as="offset" />
          </mxGeometry>
        </mxCell>
        <mxCell id="Yeybq29zLoQR2ApoFsXh-5" value="" style="endArrow=none;html=1;rounded=0;exitX=0;exitY=0.385;exitDx=0;exitDy=0;exitPerimeter=0;" parent="1" edge="1">
          <mxGeometry x="-0.6129" y="116" width="50" height="50" relative="1" as="geometry">
            <mxPoint x="-1470" y="-3434.98" as="sourcePoint" />
            <mxPoint x="-1500" y="-3585" as="targetPoint" />
            <Array as="points">
              <mxPoint x="-1500" y="-3435" />
            </Array>
            <mxPoint x="106" y="116" as="offset" />
          </mxGeometry>
        </mxCell>
        <mxCell id="Yeybq29zLoQR2ApoFsXh-7" value="" style="endArrow=none;html=1;rounded=0;exitX=0;exitY=0.385;exitDx=0;exitDy=0;exitPerimeter=0;" parent="1" edge="1">
          <mxGeometry x="-0.6129" y="116" width="50" height="50" relative="1" as="geometry">
            <mxPoint x="-1420" y="-3091.98" as="sourcePoint" />
            <mxPoint x="-1450" y="-3202" as="targetPoint" />
            <Array as="points">
              <mxPoint x="-1450" y="-3092" />
            </Array>
            <mxPoint x="106" y="116" as="offset" />
          </mxGeometry>
        </mxCell>
        <mxCell id="Yeybq29zLoQR2ApoFsXh-8" value="" style="endArrow=classic;html=1;rounded=0;exitX=0;exitY=0.25;exitDx=0;exitDy=0;entryX=0.055;entryY=1;entryDx=0;entryDy=0;entryPerimeter=0;" parent="1" source="vhmbv-RrimLqrtO0uC5v-64" edge="1" target="PAFHYs4fHEggMUIT7Akd-7">
          <mxGeometry width="50" height="50" relative="1" as="geometry">
            <mxPoint x="-1420" y="-3176" as="sourcePoint" />
            <mxPoint x="-1450" y="-3220" as="targetPoint" />
            <Array as="points">
              <mxPoint x="-1450" y="-3188" />
              <mxPoint x="-1450" y="-3213" />
            </Array>
          </mxGeometry>
        </mxCell>
        <mxCell id="Yeybq29zLoQR2ApoFsXh-9" value="&lt;p style=&quot;margin: 4px 0px 0px; text-align: center;&quot;&gt;&lt;b style=&quot;background-color: initial;&quot;&gt;&lt;u&gt;ExploitCatalog&lt;/u&gt;&lt;/b&gt;&lt;b style=&quot;background-color: initial;&quot;&gt;&lt;u&gt;Type&lt;/u&gt;&lt;/b&gt;&lt;/p&gt;&lt;hr&gt;&lt;p style=&quot;margin: 0px ; margin-left: 8px&quot;&gt;&lt;span style=&quot;background-color: initial; font-family: &amp;quot;Courier New&amp;quot;;&quot;&gt;kev&lt;/span&gt;&lt;/p&gt;&lt;p style=&quot;margin: 0px ; margin-left: 8px&quot;&gt;&lt;font face=&quot;Courier New&quot;&gt;other&lt;/font&gt;&lt;/p&gt;" style="verticalAlign=top;align=left;overflow=fill;fontSize=12;fontFamily=Helvetica;html=1;" parent="1" vertex="1">
          <mxGeometry x="-1040" y="-3419" width="239" height="66" as="geometry" />
        </mxCell>
        <UserObject label="&lt;a href=&quot;https://www.cisa.gov/sites/default/files/publications/cisa-ssvc-guide%20508c.pdf&quot;&gt;CISA Stakeholder-Specific Vulnerability Categorization Guide&lt;/a&gt;" id="Yeybq29zLoQR2ApoFsXh-13">
          <mxCell style="text;whiteSpace=wrap;html=1;" parent="1" vertex="1">
            <mxGeometry x="-690" y="-3556" width="340" height="40" as="geometry" />
          </mxCell>
        </UserObject>
        <mxCell id="Yeybq29zLoQR2ApoFsXh-16" value="&lt;p style=&quot;margin: 4px 0px 0px; text-align: center;&quot;&gt;&lt;span style=&quot;background-color: initial;&quot;&gt;&lt;b&gt;&lt;u&gt;CvssV2SeverityType&lt;/u&gt;&lt;/b&gt;&lt;/span&gt;&lt;/p&gt;&lt;hr&gt;&lt;p style=&quot;margin: 0px ; margin-left: 8px&quot;&gt;&lt;span style=&quot;font-family: &amp;quot;Courier New&amp;quot;; background-color: initial;&quot;&gt;high&lt;/span&gt;&lt;br&gt;&lt;/p&gt;&lt;p style=&quot;margin: 0px ; margin-left: 8px&quot;&gt;&lt;font face=&quot;Courier New&quot;&gt;&lt;span style=&quot;font-size: 12px;&quot;&gt;medium&lt;/span&gt;&lt;/font&gt;&lt;/p&gt;&lt;p style=&quot;margin: 0px ; margin-left: 8px&quot;&gt;&lt;font face=&quot;Courier New&quot;&gt;&lt;span style=&quot;font-size: 12px;&quot;&gt;low&lt;/span&gt;&lt;/font&gt;&lt;/p&gt;&lt;p style=&quot;margin: 0px ; margin-left: 8px&quot;&gt;&lt;span style=&quot;font-family: &amp;quot;Courier New&amp;quot;; background-color: initial;&quot;&gt;noAssertion&lt;/span&gt;&lt;br&gt;&lt;/p&gt;" style="verticalAlign=top;align=left;overflow=fill;fontSize=12;fontFamily=Helvetica;html=1;" parent="1" vertex="1">
          <mxGeometry x="-1040" y="-3950" width="319" height="100" as="geometry" />
        </mxCell>
        <mxCell id="Yeybq29zLoQR2ApoFsXh-22" value="&lt;p style=&quot;margin: 0px ; margin-top: 4px ; text-align: center ; text-decoration: underline&quot;&gt;&lt;b&gt;ExternalIdentifierType&lt;/b&gt;&lt;/p&gt;&lt;hr&gt;&lt;p style=&quot;margin: 0px ; margin-left: 8px&quot;&gt;&lt;font face=&quot;Courier New&quot;&gt;cpe_2.2&lt;/font&gt;&lt;/p&gt;&lt;p style=&quot;margin: 0px ; margin-left: 8px&quot;&gt;&lt;font face=&quot;Courier New&quot;&gt;cpe_2.3&lt;/font&gt;&lt;/p&gt;&lt;p style=&quot;margin: 0px ; margin-left: 8px&quot;&gt;&lt;font color=&quot;#ff0000&quot; face=&quot;Courier New&quot;&gt;cve&lt;/font&gt;&lt;/p&gt;&lt;p style=&quot;margin: 0px ; margin-left: 8px&quot;&gt;&lt;span style=&quot;font-family: &amp;quot;Courier New&amp;quot;; background-color: initial;&quot;&gt;&lt;font color=&quot;#ff0000&quot;&gt;securityOther&lt;/font&gt;&lt;/span&gt;&lt;br&gt;&lt;/p&gt;&lt;p style=&quot;margin: 0px ; margin-left: 8px&quot;&gt;&lt;font face=&quot;Courier New&quot;&gt;...&lt;/font&gt;&lt;/p&gt;&lt;p style=&quot;margin: 0px ; margin-left: 8px&quot;&gt;&lt;br&gt;&lt;/p&gt;" style="verticalAlign=top;align=left;overflow=fill;fontSize=12;fontFamily=Helvetica;html=1;" parent="1" vertex="1">
          <mxGeometry x="-881" y="-4358" width="180" height="130" as="geometry" />
        </mxCell>
        <mxCell id="Yeybq29zLoQR2ApoFsXh-23" value="&lt;p style=&quot;margin: 0px ; margin-top: 4px ; text-align: center ; text-decoration: underline&quot;&gt;&lt;b&gt;RelationshipType&lt;/b&gt;&lt;/p&gt;&lt;hr&gt;&lt;p style=&quot;margin: 0px ; margin-left: 8px&quot;&gt;&lt;u style=&quot;color: rgb(255, 0, 0); font-family: &amp;quot;Courier New&amp;quot;; background-color: initial;&quot;&gt;coordinatedBy&lt;/u&gt;&lt;br&gt;&lt;/p&gt;&lt;p style=&quot;margin: 0px ; margin-left: 8px&quot;&gt;&lt;font color=&quot;#ff0000&quot; face=&quot;Courier New&quot;&gt;&lt;u style=&quot;&quot;&gt;explortCreatedBy&lt;/u&gt;&lt;/font&gt;&lt;/p&gt;&lt;p style=&quot;margin: 0px ; margin-left: 8px&quot;&gt;&lt;u style=&quot;color: rgb(255, 0, 0); font-family: &amp;quot;Courier New&amp;quot;; background-color: initial;&quot;&gt;fixedBy&lt;/u&gt;&lt;br&gt;&lt;/p&gt;&lt;p style=&quot;margin: 0px ; margin-left: 8px&quot;&gt;&lt;font color=&quot;#ff0000&quot; face=&quot;Courier New&quot;&gt;&lt;u style=&quot;&quot;&gt;foundBy&lt;/u&gt;&lt;/font&gt;&lt;/p&gt;&lt;p style=&quot;margin: 0px ; margin-left: 8px&quot;&gt;&lt;font color=&quot;#ff0000&quot; face=&quot;Courier New&quot;&gt;&lt;u style=&quot;&quot;&gt;hasAssociatedVulnerability&lt;/u&gt;&lt;/font&gt;&lt;/p&gt;&lt;p style=&quot;margin: 0px ; margin-left: 8px&quot;&gt;&lt;u style=&quot;color: rgb(255, 0, 0); font-family: &amp;quot;Courier New&amp;quot;; background-color: initial;&quot;&gt;publishedBy&lt;/u&gt;&lt;br&gt;&lt;/p&gt;&lt;p style=&quot;margin: 0px ; margin-left: 8px&quot;&gt;&lt;font color=&quot;#ff0000&quot; face=&quot;Courier New&quot;&gt;&lt;u style=&quot;&quot;&gt;reportedBy&lt;/u&gt;&lt;/font&gt;&lt;/p&gt;&lt;p style=&quot;margin: 0px ; margin-left: 8px&quot;&gt;&lt;font color=&quot;#ff0000&quot; face=&quot;Courier New&quot;&gt;&lt;u style=&quot;&quot;&gt;republishedBy&lt;/u&gt;&lt;/font&gt;&lt;/p&gt;&lt;p style=&quot;margin: 0px ; margin-left: 8px&quot;&gt;&lt;font face=&quot;Courier New&quot;&gt;&lt;u style=&quot;&quot;&gt;&lt;font color=&quot;#ff0000&quot;&gt;suppliedBy&lt;/font&gt;&lt;br&gt;&lt;/u&gt;&lt;/font&gt;&lt;/p&gt;&lt;p style=&quot;margin: 0px ; margin-left: 8px&quot;&gt;&lt;font face=&quot;Courier New&quot;&gt;...&lt;/font&gt;&lt;/p&gt;&lt;p style=&quot;margin: 0px ; margin-left: 8px&quot;&gt;&lt;br&gt;&lt;/p&gt;" style="verticalAlign=top;align=left;overflow=fill;fontSize=12;fontFamily=Helvetica;html=1;" parent="1" vertex="1">
          <mxGeometry x="-710" y="-4630" width="220" height="200" as="geometry" />
        </mxCell>
        <mxCell id="Yeybq29zLoQR2ApoFsXh-29" value="ExternalIdentifier" style="swimlane;fontStyle=1;childLayout=stackLayout;horizontal=1;startSize=26;fillColor=#d5e8d4;horizontalStack=0;resizeParent=1;resizeParentMax=0;resizeLast=0;collapsible=1;marginBottom=0;strokeColor=#82b366;" parent="1" vertex="1">
          <mxGeometry x="-1191" y="-4390" width="281" height="156" as="geometry" />
        </mxCell>
        <mxCell id="Yeybq29zLoQR2ApoFsXh-30" value="+ externalIdentifierType: ExternalIdentifierType" style="text;strokeColor=none;fillColor=none;align=left;verticalAlign=top;spacingLeft=4;spacingRight=4;overflow=hidden;rotatable=0;points=[[0,0.5],[1,0.5]];portConstraint=eastwest;" parent="Yeybq29zLoQR2ApoFsXh-29" vertex="1">
          <mxGeometry y="26" width="281" height="26" as="geometry" />
        </mxCell>
        <mxCell id="Yeybq29zLoQR2ApoFsXh-31" value="+ identifier: String&#xa;&#xa;&#xa;" style="text;strokeColor=none;fillColor=none;align=left;verticalAlign=top;spacingLeft=4;spacingRight=4;overflow=hidden;rotatable=0;points=[[0,0.5],[1,0.5]];portConstraint=eastwest;" parent="Yeybq29zLoQR2ApoFsXh-29" vertex="1">
          <mxGeometry y="52" width="281" height="26" as="geometry" />
        </mxCell>
        <mxCell id="PAFHYs4fHEggMUIT7Akd-2" value="+ identifierLocator: URI[0..*]&#xa;&#xa;&#xa;" style="text;strokeColor=none;fillColor=none;align=left;verticalAlign=top;spacingLeft=4;spacingRight=4;overflow=hidden;rotatable=0;points=[[0,0.5],[1,0.5]];portConstraint=eastwest;fontStyle=0;fontColor=#FF0000;" parent="Yeybq29zLoQR2ApoFsXh-29" vertex="1">
          <mxGeometry y="78" width="281" height="26" as="geometry" />
        </mxCell>
        <mxCell id="PAFHYs4fHEggMUIT7Akd-3" value="+ issuingAuthority: Agent[0..1]&#xa;&#xa;&#xa;" style="text;strokeColor=none;fillColor=none;align=left;verticalAlign=top;spacingLeft=4;spacingRight=4;overflow=hidden;rotatable=0;points=[[0,0.5],[1,0.5]];portConstraint=eastwest;fontColor=#FF0000;" parent="Yeybq29zLoQR2ApoFsXh-29" vertex="1">
          <mxGeometry y="104" width="281" height="26" as="geometry" />
        </mxCell>
        <mxCell id="Yeybq29zLoQR2ApoFsXh-32" value="+ comment: String[0..1]&#xa;" style="text;strokeColor=none;fillColor=none;align=left;verticalAlign=top;spacingLeft=4;spacingRight=4;overflow=hidden;rotatable=0;points=[[0,0.5],[1,0.5]];portConstraint=eastwest;" parent="Yeybq29zLoQR2ApoFsXh-29" vertex="1">
          <mxGeometry y="130" width="281" height="26" as="geometry" />
        </mxCell>
        <mxCell id="rZuNcApO604I1lBTYKyU-1" value="" style="endArrow=block;endSize=6;endFill=0;html=1;entryX=1;entryY=0.5;entryDx=0;entryDy=0;exitX=0.5;exitY=0;exitDx=0;exitDy=0;" parent="1" source="gfH33e8ERVnTQL8CG1b4-11" target="gfH33e8ERVnTQL8CG1b4-52" edge="1">
          <mxGeometry width="160" relative="1" as="geometry">
            <mxPoint x="-1160" y="-4160" as="sourcePoint" />
            <mxPoint x="-1239" y="-4332" as="targetPoint" />
            <Array as="points">
              <mxPoint x="-1230" y="-4350" />
            </Array>
          </mxGeometry>
        </mxCell>
        <object label="Relationship" description="static representation of a part of the universe of discourse that may be identified and characterised by its behaviour and attribute." description_source="ISO 15531-1:2004" id="rZuNcApO604I1lBTYKyU-2">
          <mxCell style="swimlane;fontStyle=3;childLayout=stackLayout;horizontal=1;startSize=26;fillColor=#6a00ff;horizontalStack=0;resizeParent=1;resizeParentMax=0;resizeLast=0;collapsible=1;marginBottom=0;strokeColor=#3700CC;fontColor=#ffffff;" parent="1" vertex="1">
            <mxGeometry x="-1558" y="-4278" width="260" height="78" as="geometry" />
          </mxCell>
        </object>
        <mxCell id="vhmbv-RrimLqrtO0uC5v-59" value="+ startTime: DateTime[0...1]" style="text;strokeColor=none;fillColor=none;align=left;verticalAlign=top;spacingLeft=4;spacingRight=4;overflow=hidden;rotatable=0;points=[[0,0.5],[1,0.5]];portConstraint=eastwest;fontColor=#FF0000;" parent="rZuNcApO604I1lBTYKyU-2" vertex="1">
          <mxGeometry y="26" width="260" height="26" as="geometry" />
        </mxCell>
        <mxCell id="PAFHYs4fHEggMUIT7Akd-5" value="+ endTime: DateTime[0...1]" style="text;strokeColor=none;fillColor=none;align=left;verticalAlign=top;spacingLeft=4;spacingRight=4;overflow=hidden;rotatable=0;points=[[0,0.5],[1,0.5]];portConstraint=eastwest;fontColor=#FF0000;" parent="rZuNcApO604I1lBTYKyU-2" vertex="1">
          <mxGeometry y="52" width="260" height="26" as="geometry" />
        </mxCell>
        <mxCell id="dll3_H41sZPCGXfSmoCE-1" value="" style="endArrow=block;endSize=6;endFill=0;html=1;entryX=0.2;entryY=1.115;entryDx=0;entryDy=0;entryPerimeter=0;exitX=0.181;exitY=-0.096;exitDx=0;exitDy=0;exitPerimeter=0;" edge="1" parent="1">
          <mxGeometry width="160" relative="1" as="geometry">
            <mxPoint x="-1502.84" y="-4024.992" as="sourcePoint" />
            <mxPoint x="-1504" y="-4197.01" as="targetPoint" />
          </mxGeometry>
        </mxCell>
        <mxCell id="dll3_H41sZPCGXfSmoCE-3" value="" style="endArrow=none;html=1;rounded=0;" edge="1" parent="1">
          <mxGeometry x="-0.6129" y="116" width="50" height="50" relative="1" as="geometry">
            <mxPoint x="-1470" y="-3297" as="sourcePoint" />
            <mxPoint x="-1500" y="-3450" as="targetPoint" />
            <Array as="points">
              <mxPoint x="-1500" y="-3297" />
            </Array>
            <mxPoint x="106" y="116" as="offset" />
          </mxGeometry>
        </mxCell>
        <UserObject label="https://www.cisa.gov/sites/default/files/2023-04/minimum-requirements-for-vex-508c.pdf" link="https://www.cisa.gov/sites/default/files/2023-04/minimum-requirements-for-vex-508c.pdf" id="dll3_H41sZPCGXfSmoCE-4">
          <mxCell style="text;whiteSpace=wrap;html=1;" vertex="1" parent="1">
            <mxGeometry x="-1000" y="-3150" width="500" height="40" as="geometry" />
          </mxCell>
        </UserObject>
        <mxCell id="dll3_H41sZPCGXfSmoCE-7" value="VexFixedVulnAssessmentRelationship" style="swimlane;fontStyle=1;childLayout=stackLayout;horizontal=1;startSize=26;fillColor=#d5e8d4;horizontalStack=0;resizeParent=1;resizeParentMax=0;resizeLast=0;collapsible=1;marginBottom=0;strokeColor=#82b366;" vertex="1" parent="1">
          <mxGeometry x="-1420" y="-2985" width="380" height="52" as="geometry" />
        </mxCell>
        <mxCell id="dll3_H41sZPCGXfSmoCE-9" value="+ relationshipType: &quot;fixedIn&quot;" style="text;strokeColor=none;fillColor=none;align=left;verticalAlign=top;spacingLeft=4;spacingRight=4;overflow=hidden;rotatable=0;points=[[0,0.5],[1,0.5]];portConstraint=eastwest;" vertex="1" parent="dll3_H41sZPCGXfSmoCE-7">
          <mxGeometry y="26" width="380" height="26" as="geometry" />
        </mxCell>
        <mxCell id="dll3_H41sZPCGXfSmoCE-10" value="VexUnderInvestigationVulnAssessmentRelationship" style="swimlane;fontStyle=1;childLayout=stackLayout;horizontal=1;startSize=26;fillColor=#d5e8d4;horizontalStack=0;resizeParent=1;resizeParentMax=0;resizeLast=0;collapsible=1;marginBottom=0;strokeColor=#82b366;" vertex="1" parent="1">
          <mxGeometry x="-1420" y="-2923" width="380" height="52" as="geometry" />
        </mxCell>
        <mxCell id="dll3_H41sZPCGXfSmoCE-11" value="+ relationshipType: &quot;underInvestigationFor&quot;" style="text;strokeColor=none;fillColor=none;align=left;verticalAlign=top;spacingLeft=4;spacingRight=4;overflow=hidden;rotatable=0;points=[[0,0.5],[1,0.5]];portConstraint=eastwest;" vertex="1" parent="dll3_H41sZPCGXfSmoCE-10">
          <mxGeometry y="26" width="380" height="26" as="geometry" />
        </mxCell>
        <mxCell id="dll3_H41sZPCGXfSmoCE-12" value="" style="endArrow=none;html=1;rounded=0;exitX=0;exitY=0.25;exitDx=0;exitDy=0;" edge="1" parent="1" source="dll3_H41sZPCGXfSmoCE-7">
          <mxGeometry x="-0.6129" y="116" width="50" height="50" relative="1" as="geometry">
            <mxPoint x="-1420" y="-2973" as="sourcePoint" />
            <mxPoint x="-1450" y="-3081" as="targetPoint" />
            <Array as="points">
              <mxPoint x="-1450" y="-2973" />
              <mxPoint x="-1450" y="-3001" />
              <mxPoint x="-1450" y="-3081" />
              <mxPoint x="-1450" y="-3091" />
            </Array>
            <mxPoint x="106" y="116" as="offset" />
          </mxGeometry>
        </mxCell>
        <mxCell id="dll3_H41sZPCGXfSmoCE-13" value="" style="endArrow=none;html=1;rounded=0;exitX=0;exitY=0.25;exitDx=0;exitDy=0;" edge="1" parent="1" source="dll3_H41sZPCGXfSmoCE-10">
          <mxGeometry x="-0.6129" y="116" width="50" height="50" relative="1" as="geometry">
            <mxPoint x="-1410" y="-2934" as="sourcePoint" />
            <mxPoint x="-1450" y="-2993" as="targetPoint" />
            <Array as="points">
              <mxPoint x="-1450" y="-2910" />
              <mxPoint x="-1450" y="-2983" />
              <mxPoint x="-1450" y="-2943" />
            </Array>
            <mxPoint x="106" y="116" as="offset" />
          </mxGeometry>
        </mxCell>
        <mxCell id="dll3_H41sZPCGXfSmoCE-27" value="" style="endArrow=block;endSize=6;endFill=0;html=1;entryX=0.2;entryY=1.115;entryDx=0;entryDy=0;entryPerimeter=0;" edge="1" parent="1">
          <mxGeometry width="160" relative="1" as="geometry">
            <mxPoint x="-1500" y="-3920" as="sourcePoint" />
            <mxPoint x="-1500" y="-3968" as="targetPoint" />
          </mxGeometry>
        </mxCell>
        <mxCell id="dll3_H41sZPCGXfSmoCE-28" value="" style="endArrow=none;html=1;rounded=0;exitX=0;exitY=0.385;exitDx=0;exitDy=0;exitPerimeter=0;" edge="1" parent="1">
          <mxGeometry x="-0.6129" y="116" width="50" height="50" relative="1" as="geometry">
            <mxPoint x="-1469" y="-3929.99" as="sourcePoint" />
            <mxPoint x="-1500" y="-3950" as="targetPoint" />
            <Array as="points">
              <mxPoint x="-1499" y="-3930.01" />
            </Array>
            <mxPoint x="106" y="116" as="offset" />
          </mxGeometry>
        </mxCell>
      </root>
    </mxGraphModel>
  </diagram>
</mxfile>
